<svg width="81" height="27" viewBox="0 0 81 27" fill="none" xmlns="http://www.w3.org/2000/svg">
<path fill-rule="evenodd" clip-rule="evenodd" d="M0.391564 1.81091C0.391564 1.53477 0.615422 1.31091 0.891564 1.31091H0.942532C1.21867 1.31091 1.44253 1.53477 1.44253 1.81091C1.44253 2.08706 1.21867 2.31091 0.942532 2.31091H0.891564C0.615422 2.31091 0.391564 2.08706 0.391564 1.81091ZM3.5006 1.81091C3.5006 1.53477 3.72445 1.31091 4.0006 1.31091H4.10253C4.37867 1.31091 4.60253 1.53477 4.60253 1.81091C4.60253 2.08706 4.37867 2.31091 4.10253 2.31091H4.0006C3.72445 2.31091 3.5006 2.08706 3.5006 1.81091ZM6.6606 1.81091C6.6606 1.53477 6.88445 1.31091 7.1606 1.31091H7.26253C7.53867 1.31091 7.76253 1.53477 7.76253 1.81091C7.76253 2.08706 7.53867 2.31091 7.26253 2.31091H7.1606C6.88445 2.31091 6.6606 2.08706 6.6606 1.81091ZM9.8206 1.81091C9.8206 1.53477 10.0445 1.31091 10.3206 1.31091H10.4225C10.6987 1.31091 10.9225 1.53477 10.9225 1.81091C10.9225 2.08706 10.6987 2.31091 10.4225 2.31091H10.3206C10.0445 2.31091 9.8206 2.08706 9.8206 1.81091ZM12.9806 1.81091C12.9806 1.53477 13.2045 1.31091 13.4806 1.31091H13.5825C13.8587 1.31091 14.0825 1.53477 14.0825 1.81091C14.0825 2.08706 13.8587 2.31091 13.5825 2.31091H13.4806C13.2045 2.31091 12.9806 2.08706 12.9806 1.81091ZM16.1406 1.81091C16.1406 1.53477 16.3645 1.31091 16.6406 1.31091H16.7425C17.0187 1.31091 17.2425 1.53477 17.2425 1.81091C17.2425 2.08706 17.0187 2.31091 16.7425 2.31091H16.6406C16.3645 2.31091 16.1406 2.08706 16.1406 1.81091ZM19.3006 1.81091C19.3006 1.53477 19.5245 1.31091 19.8006 1.31091H19.9025C20.1787 1.31091 20.4025 1.53477 20.4025 1.81091C20.4025 2.08706 20.1787 2.31091 19.9025 2.31091H19.8006C19.5245 2.31091 19.3006 2.08706 19.3006 1.81091ZM22.4606 1.81091C22.4606 1.53477 22.6845 1.31091 22.9606 1.31091H23.0625C23.3387 1.31091 23.5625 1.53477 23.5625 1.81091C23.5625 2.08706 23.3387 2.31091 23.0625 2.31091H22.9606C22.6845 2.31091 22.4606 2.08706 22.4606 1.81091ZM25.6206 1.81091C25.6206 1.53477 25.8445 1.31091 26.1206 1.31091H26.2225C26.4987 1.31091 26.7225 1.53477 26.7225 1.81091C26.7225 2.08706 26.4987 2.31091 26.2225 2.31091H26.1206C25.8445 2.31091 25.6206 2.08706 25.6206 1.81091ZM28.7806 1.81091C28.7806 1.53477 29.0045 1.31091 29.2806 1.31091H29.3825C29.6587 1.31091 29.8825 1.53477 29.8825 1.81091C29.8825 2.08706 29.6587 2.31091 29.3825 2.31091H29.2806C29.0045 2.31091 28.7806 2.08706 28.7806 1.81091ZM31.9406 1.81091C31.9406 1.53477 32.1645 1.31091 32.4406 1.31091H32.5425C32.8187 1.31091 33.0425 1.53477 33.0425 1.81091C33.0425 2.08706 32.8187 2.31091 32.5425 2.31091H32.4406C32.1645 2.31091 31.9406 2.08706 31.9406 1.81091ZM35.1006 1.81091C35.1006 1.53477 35.3245 1.31091 35.6006 1.31091H35.7025C35.9787 1.31091 36.2025 1.53477 36.2025 1.81091C36.2025 2.08706 35.9787 2.31091 35.7025 2.31091H35.6006C35.3245 2.31091 35.1006 2.08706 35.1006 1.81091ZM38.2606 1.81091C38.2606 1.53477 38.4845 1.31091 38.7606 1.31091H38.8625C39.1387 1.31091 39.3625 1.53477 39.3625 1.81091C39.3625 2.08706 39.1387 2.31091 38.8625 2.31091H38.7606C38.4845 2.31091 38.2606 2.08706 38.2606 1.81091ZM41.4206 1.81091C41.4206 1.53477 41.6445 1.31091 41.9206 1.31091H42.0225C42.2987 1.31091 42.5225 1.53477 42.5225 1.81091C42.5225 2.08706 42.2987 2.31091 42.0225 2.31091H41.9206C41.6445 2.31091 41.4206 2.08706 41.4206 1.81091ZM44.5806 1.81091C44.5806 1.53477 44.8045 1.31091 45.0806 1.31091H45.1825C45.4587 1.31091 45.6825 1.53477 45.6825 1.81091C45.6825 2.08706 45.4587 2.31091 45.1825 2.31091H45.0806C44.8045 2.31091 44.5806 2.08706 44.5806 1.81091ZM47.7406 1.81091C47.7406 1.53477 47.9645 1.31091 48.2406 1.31091H48.3425C48.6187 1.31091 48.8425 1.53477 48.8425 1.81091C48.8425 2.08706 48.6187 2.31091 48.3425 2.31091H48.2406C47.9645 2.31091 47.7406 2.08706 47.7406 1.81091ZM50.9006 1.81091C50.9006 1.53477 51.1245 1.31091 51.4006 1.31091H51.5025C51.7787 1.31091 52.0025 1.53477 52.0025 1.81091C52.0025 2.08706 51.7787 2.31091 51.5025 2.31091H51.4006C51.1245 2.31091 50.9006 2.08706 50.9006 1.81091ZM54.0606 1.81091C54.0606 1.53477 54.2845 1.31091 54.5606 1.31091H54.6625C54.9387 1.31091 55.1625 1.53477 55.1625 1.81091C55.1625 2.08706 54.9387 2.31091 54.6625 2.31091H54.5606C54.2845 2.31091 54.0606 2.08706 54.0606 1.81091ZM57.2206 1.81091C57.2206 1.53477 57.4445 1.31091 57.7206 1.31091H57.8225C58.0987 1.31091 58.3225 1.53477 58.3225 1.81091C58.3225 2.08706 58.0987 2.31091 57.8225 2.31091H57.7206C57.4445 2.31091 57.2206 2.08706 57.2206 1.81091ZM60.3806 1.81091C60.3806 1.53477 60.6045 1.31091 60.8806 1.31091H60.9825C61.2587 1.31091 61.4825 1.53477 61.4825 1.81091C61.4825 2.08706 61.2587 2.31091 60.9825 2.31091H60.8806C60.6045 2.31091 60.3806 2.08706 60.3806 1.81091ZM63.5406 1.81091C63.5406 1.53477 63.7645 1.31091 64.0406 1.31091H64.1425C64.4187 1.31091 64.6425 1.53477 64.6425 1.81091C64.6425 2.08706 64.4187 2.31091 64.1425 2.31091H64.0406C63.7645 2.31091 63.5406 2.08706 63.5406 1.81091ZM66.7006 1.81091C66.7006 1.53477 66.9245 1.31091 67.2006 1.31091H67.3025C67.5787 1.31091 67.8025 1.53477 67.8025 1.81091C67.8025 2.08706 67.5787 2.31091 67.3025 2.31091H67.2006C66.9245 2.31091 66.7006 2.08706 66.7006 1.81091ZM69.8606 1.81091C69.8606 1.53477 70.0845 1.31091 70.3606 1.31091H70.4625C70.7387 1.31091 70.9625 1.53477 70.9625 1.81091C70.9625 2.08706 70.7387 2.31091 70.4625 2.31091H70.3606C70.0845 2.31091 69.8606 2.08706 69.8606 1.81091ZM73.0206 1.81091C73.0206 1.53477 73.2445 1.31091 73.5206 1.31091H73.6226C73.8987 1.31091 74.1226 1.53477 74.1226 1.81091C74.1226 2.08706 73.8987 2.31091 73.6226 2.31091H73.5206C73.2445 2.31091 73.0206 2.08706 73.0206 1.81091ZM76.1806 1.81091C76.1806 1.53477 76.4045 1.31091 76.6806 1.31091H76.7826C77.0587 1.31091 77.2826 1.53477 77.2826 1.81091C77.2826 2.08706 77.0587 2.31091 76.7826 2.31091H76.6806C76.4045 2.31091 76.1806 2.08706 76.1806 1.81091ZM79.3406 1.81091C79.3406 1.53477 79.5645 1.31091 79.8406 1.31091H79.8916C80.1677 1.31091 80.3916 1.53477 80.3916 1.81091C80.3916 2.08706 80.1677 2.31091 79.8916 2.31091H79.8406C79.5645 2.31091 79.3406 2.08706 79.3406 1.81091Z" fill="#D93C19" fill-opacity="0.5"/>
<path fill-rule="evenodd" clip-rule="evenodd" d="M0 1.62186L0.783128 1L5.78979 7.30505H11.854L17.5579 4.78658L23.7793 13.1403L28.7671 18.9904L34.6565 14.7874H41.1073L46.3508 24.4567L51.5099 18.8389L57.4459 15.6893L63.1501 12.8744L69.2569 17.0462H74.6442L80.7874 25.0054L79.9958 25.6164L74.1528 18.0462H68.9479L63.0686 14.0298L57.9017 16.5796L52.1303 19.6418L46.1396 26.1651L40.512 15.7874H34.9768L28.6014 20.3373L22.9969 13.764L17.2322 6.02351L12.065 8.30505H5.30693L0 1.62186Z" fill="#D93C19"/>
</svg>
