<svg width="173" height="37" viewBox="0 0 173 37" fill="none" xmlns="http://www.w3.org/2000/svg">
<g clip-path="url(#clip0)">
<path d="M31.645 31.77L41.14 3.6H42.76L31.645 36.045L21.88 6.93L12.115 36.045L1 3.6H2.62L12.205 31.77L21.88 2.655L31.645 31.77Z" fill="white"/>
<path d="M52.4626 35.55C50.6626 35.55 49.0576 35.085 47.6476 34.155C46.2376 33.195 45.1126 31.89 44.2726 30.24C43.4626 28.59 43.0576 26.73 43.0576 24.66C43.0576 22.59 43.4776 20.76 44.3176 19.17C45.1576 17.55 46.3126 16.275 47.7826 15.345C49.2526 14.415 50.9176 13.95 52.7776 13.95C54.5476 13.95 56.1226 14.385 57.5026 15.255C58.9126 16.125 60.0226 17.325 60.8326 18.855C61.6426 20.355 62.0476 22.05 62.0476 23.94C62.0476 24.09 62.0476 24.285 62.0476 24.525C62.0476 24.735 62.0176 24.93 61.9576 25.11H44.4976C44.5576 26.88 44.9476 28.455 45.6676 29.835C46.3876 31.185 47.3326 32.25 48.5026 33.03C49.7026 33.81 51.0676 34.2 52.5976 34.2C54.3076 34.2 55.7926 33.84 57.0526 33.12C58.3126 32.37 59.4826 31.17 60.5626 29.52L61.6876 30.285C60.4876 32.115 59.1376 33.45 57.6376 34.29C56.1676 35.13 54.4426 35.55 52.4626 35.55ZM52.7776 15.21C51.2476 15.21 49.8676 15.585 48.6376 16.335C47.4376 17.055 46.4776 18.06 45.7576 19.35C45.0376 20.64 44.6326 22.14 44.5426 23.85H60.5626C60.5626 23.73 60.5626 23.61 60.5626 23.49C60.5626 21.93 60.2176 20.535 59.5276 19.305C58.8376 18.045 57.9076 17.055 56.7376 16.335C55.5676 15.585 54.2476 15.21 52.7776 15.21Z" fill="white"/>
<path d="M65.5873 7.2V3.6H85.6123V7.2H77.5123V35.1H73.6873V7.2H65.5873Z" fill="white"/>
<path d="M96.9318 18.36C96.4518 18 96.0168 17.745 95.6268 17.595C95.2368 17.415 94.7418 17.325 94.1418 17.325C92.7918 17.325 91.8768 17.82 91.3968 18.81C90.9168 19.77 90.6768 21 90.6768 22.5V35.1H87.0768V14.4H90.6768V16.785C91.2468 15.915 91.9218 15.225 92.7018 14.715C93.4818 14.205 94.2618 13.95 95.0418 13.95C95.7918 13.95 96.4818 14.055 97.1118 14.265C97.7718 14.445 98.3718 14.82 98.9118 15.39L96.9318 18.36Z" fill="white"/>
<path d="M104.832 19.17L103.077 16.515C103.857 15.945 104.922 15.375 106.272 14.805C107.652 14.235 109.302 13.95 111.222 13.95C113.622 13.95 115.572 14.505 117.072 15.615C118.572 16.695 119.322 18.24 119.322 20.25V35.1H115.722V32.31C115.062 33.39 114.072 34.2 112.752 34.74C111.432 35.28 110.142 35.55 108.882 35.55C107.622 35.55 106.437 35.295 105.327 34.785C104.247 34.245 103.377 33.48 102.717 32.49C102.057 31.5 101.727 30.3 101.727 28.89C101.727 26.88 102.432 25.275 103.842 24.075C105.282 22.845 107.277 22.23 109.827 22.23C111.207 22.23 112.377 22.395 113.337 22.725C114.327 23.025 115.122 23.37 115.722 23.76V20.745C115.722 19.335 115.257 18.375 114.327 17.865C113.427 17.355 112.332 17.1 111.042 17.1C109.482 17.1 108.177 17.355 107.127 17.865C106.077 18.375 105.312 18.81 104.832 19.17ZM105.372 28.71C105.372 29.91 105.777 30.84 106.587 31.5C107.427 32.13 108.507 32.445 109.827 32.445C111.477 32.445 112.872 31.95 114.012 30.96C115.152 29.97 115.722 28.65 115.722 27V26.235C114.882 25.815 114.027 25.515 113.157 25.335C112.287 25.155 111.372 25.065 110.412 25.065C108.672 25.065 107.397 25.395 106.587 26.055C105.777 26.685 105.372 27.57 105.372 28.71Z" fill="white"/>
<path d="M124.867 24.75C124.867 22.5 125.332 20.58 126.262 18.99C127.192 17.37 128.437 16.125 129.997 15.255C131.557 14.385 133.267 13.95 135.127 13.95C136.657 13.95 138.022 14.295 139.222 14.985C140.452 15.675 141.442 16.665 142.192 17.955V0H145.792V35.1H142.192V31.545C141.442 32.835 140.452 33.825 139.222 34.515C138.022 35.205 136.657 35.55 135.127 35.55C133.267 35.55 131.557 35.115 129.997 34.245C128.437 33.375 127.192 32.13 126.262 30.51C125.332 28.89 124.867 26.97 124.867 24.75ZM128.512 24.75C128.512 26.34 128.827 27.69 129.457 28.8C130.117 29.91 130.987 30.75 132.067 31.32C133.147 31.89 134.317 32.175 135.577 32.175C136.627 32.175 137.662 31.89 138.682 31.32C139.702 30.75 140.542 29.91 141.202 28.8C141.862 27.69 142.192 26.34 142.192 24.75C142.192 23.16 141.862 21.81 141.202 20.7C140.542 19.59 139.702 18.75 138.682 18.18C137.662 17.61 136.627 17.325 135.577 17.325C134.317 17.325 133.147 17.61 132.067 18.18C130.987 18.75 130.117 19.59 129.457 20.7C128.827 21.81 128.512 23.16 128.512 24.75Z" fill="white"/>
<path d="M161.591 35.55C159.671 35.55 157.961 35.1 156.461 34.2C154.991 33.27 153.836 31.995 152.996 30.375C152.186 28.755 151.781 26.88 151.781 24.75C151.781 22.59 152.201 20.7 153.041 19.08C153.911 17.46 155.111 16.2 156.641 15.3C158.201 14.4 160.001 13.95 162.041 13.95C165.071 13.95 167.456 14.895 169.196 16.785C170.936 18.675 171.806 21.27 171.806 24.57C171.806 24.78 171.791 25.005 171.761 25.245C171.761 25.455 171.761 25.59 171.761 25.65H155.471C155.621 27.72 156.266 29.325 157.406 30.465C158.546 31.605 160.091 32.175 162.041 32.175C164.861 32.175 167.021 30.93 168.521 28.44L171.446 30.285C169.286 33.795 166.001 35.55 161.591 35.55ZM162.041 17.1C160.271 17.1 158.831 17.58 157.721 18.54C156.611 19.47 155.906 20.82 155.606 22.59H167.891C167.771 20.94 167.171 19.62 166.091 18.63C165.041 17.61 163.691 17.1 162.041 17.1Z" fill="white"/>
</g>
<defs>
<clipPath id="clip0">
<rect width="172.806" height="36.045" fill="white"/>
</clipPath>
</defs>
</svg>
