<svg width="360" height="644" viewBox="0 0 360 644" fill="none" xmlns="http://www.w3.org/2000/svg">
<g clip-path="url(#clip0)">
<path d="M5.95565 288.86C16.5575 275.396 31.8323 266.752 46.9625 259.23C93.2449 236.221 144.919 227.347 194.927 216.279C240.385 206.217 285.989 192.855 321.853 161.723C334.421 150.812 345.368 137.487 353.522 122.955C354.101 121.923 362.762 103.874 362.992 104.002C362.992 104.002 358.112 441.615 358.861 581.062C362.514 592.624 364.037 605.863 362.992 621.103C360.32 660.071 359.156 635.877 358.861 581.062C329.417 487.845 161.62 503.577 86.0001 458.205C1.00008 407.205 -10.6649 318.699 -10.6649 318.699C-6.27346 308.126 -1.16206 297.899 5.95565 288.86Z" fill="url(#paint0_linear)" fill-opacity="0.7"/>
<path d="M86.859 363.072C54.5332 354.727 22.2157 345.07 -7.44503 329.563L-7.44504 860.272L382.649 860.272L382.649 321.381L370.592 280.123C370.638 284.088 368.723 287.007 366.987 290.582C361.743 301.38 356.03 311.641 348.97 321.381C339.184 334.88 327.806 347.227 313.87 356.531C295.991 368.466 274.151 375.768 253.101 379.569C197.2 389.663 140.927 377.032 86.859 363.072Z" fill="url(#paint1_linear)" fill-opacity="0.5"/>
<path d="M272.56 198.945C305.445 217.275 338.076 236.926 366.783 261.675L465.92 -274.477L50.2717 -393.929L-50.3944 150.488L-45.2547 195.862C-44.5629 191.842 -41.9782 189.479 -39.4605 186.399C-31.8556 177.097 -23.8516 168.479 -14.509 160.801C-1.56137 150.161 12.8686 141.171 29.4564 136.04C50.7358 129.456 75.3704 128.768 98.5096 131.373C159.958 138.293 217.558 168.286 272.56 198.945Z" fill="url(#paint2_linear)" fill-opacity="0.5"/>
<path d="M-216.217 38.9778C-144.174 -158.491 -87.8145 -175.613 72.9856 -266.257C85.0695 -269.861 119.644 -278.184 161.269 -282.647C213.302 -288.225 339.672 -166.042 406.383 -84.5535C473.094 -3.065 303.949 311.459 208.435 417.264C112.922 523.069 -22.1901 493.489 -50 466C-77.81 438.511 14.9639 328.59 -61.4894 299.391C-137.943 270.192 -153.819 633.38 -189.831 554.141C-225.843 474.901 -288.261 236.447 -216.217 38.9778Z" fill="url(#paint3_linear)" fill-opacity="0.6"/>
<path d="M104.815 343.693C-61.1008 377.977 -228.86 283.326 -292 231.715C-248.217 193.007 -114.747 99.8311 68.8663 36.792C252.48 -26.2471 357.375 -28.1825 386.871 -21.2703C461.994 -3.29863 578.227 44.2572 442.176 90.707C272.113 148.769 312.209 300.837 104.815 343.693Z" fill="url(#paint4_linear)" fill-opacity="0.5"/>
<path d="M136.811 430.027C222.187 486.867 217.362 617.518 204.278 675.739C160.841 677.524 45.9245 668.921 -66.2489 620.222C-178.422 571.522 -218.485 524.416 -224.495 506.95C-239.542 462.26 -248.903 381.937 -165.97 418.169C-62.3035 463.458 30.0906 358.978 136.811 430.027Z" fill="url(#paint5_linear)" fill-opacity="0.4"/>
</g>
<defs>
<linearGradient id="paint0_linear" x1="162.894" y1="63.2047" x2="-306" y2="532.099" gradientUnits="userSpaceOnUse">
<stop stop-color="#374092"/>
<stop offset="0.59375" stop-color="#322049"/>
<stop offset="1" stop-color="#322049"/>
</linearGradient>
<linearGradient id="paint1_linear" x1="355" y1="303" x2="1.99999" y2="722" gradientUnits="userSpaceOnUse">
<stop stop-color="#322049"/>
<stop offset="0.677083" stop-color="#322049"/>
</linearGradient>
<linearGradient id="paint2_linear" x1="50" y1="264" x2="392.251" y2="-71.1669" gradientUnits="userSpaceOnUse">
<stop offset="0.141287" stop-color="#374092"/>
<stop offset="1" stop-color="#322049"/>
</linearGradient>
<linearGradient id="paint3_linear" x1="134" y1="388" x2="358" y2="5.99998" gradientUnits="userSpaceOnUse">
<stop stop-color="#701266" stop-opacity="0.5"/>
<stop offset="0.454021" stop-color="#5A4376" stop-opacity="0.5"/>
<stop offset="1" stop-color="#39A844"/>
</linearGradient>
<linearGradient id="paint4_linear" x1="106.5" y1="-24" x2="-42" y2="412" gradientUnits="userSpaceOnUse">
<stop stop-color="#322049" stop-opacity="0.5"/>
<stop offset="1" stop-color="#322049"/>
</linearGradient>
<linearGradient id="paint5_linear" x1="216" y1="652" x2="286.042" y2="477.69" gradientUnits="userSpaceOnUse">
<stop stop-color="#322049"/>
<stop offset="1" stop-color="#322049"/>
</linearGradient>
<clipPath id="clip0">
<rect width="360" height="640" fill="white"/>
</clipPath>
</defs>
</svg>
